<?xml version="1.0" encoding="UTF-8"?><svg id="a" xmlns="http://www.w3.org/2000/svg" viewBox="0 0 373.1852 373.19">
<title>Dell-logo</title><path d="M300.9552,201.798h27.8688v23.4776h-55.9046v-80.2794h28.0358v56.8018ZM209.5692,197.3687l-46.0772,36.2451-42.13-33.1331c-6.0615,14.5905-20.7047,24.7758-37.6531,24.7758h-36.0065v-80.2603h36.0065c18.9149,0,32.5176,11.956,37.6341,24.7806l42.1491-33.1237,15.6168,12.2806-38.5933,30.3507,7.3884,5.8181,38.6028-30.3553,15.6168,12.2806-38.5982,30.3411,7.4028,5.8181,38.641-30.3411v-27.8496h28.012v56.7731h27.8878v23.5063h-55.8998v-27.9068ZM98.3092,185.1167c0-10.9155-7.2119-17.0677-17.3972-17.0677h-6.2524v34.145h6.0902c9.4646,0,17.5594-5.1833,17.5594-17.0773" style="fill:#0087cc;"/><path d="M186.5855,0C83.5441,0,0,83.5393,0,186.5854s83.5441,186.6046,186.5855,186.6046,186.5997-83.5441,186.5997-186.6046S289.6459,0,186.5855,0M186.5855,352.9911c-91.9015,0-166.4059-74.4995-166.4059-166.4057S94.6841,20.1748,186.5855,20.1748s166.42,74.5091,166.42,166.4106-74.5043,166.4057-166.42,166.4057" style="fill:#0087cc;"/></svg>