<?xml version="1.0" encoding="UTF-8"?><svg id="Layer_1" xmlns="http://www.w3.org/2000/svg" viewBox="0 0 216.27 71.87"><defs><style>.cls-1{fill:#fff;}.cls-2{fill:#e1251b;}</style></defs><rect class="cls-2" width="216.27" height="71.87"/><path class="cls-1" d="M93.58,21.59c-3.25,0-6.94,1.51-9.2,4.52h0s0,0,0,0v-4.05s-7.75,0-7.75,0v28.22h7.75v-16.06c0-2.89,2.24-5.96,6.39-5.96,3.21,0,6.52,2.23,6.52,5.96v16.06h7.75v-17.49c0-6.49-4.64-11.2-11.46-11.2"/><polygon class="cls-1" points="160.12 22.07 153.11 41.29 146.11 22.07 137.26 22.07 148.87 50.28 157.36 50.28 168.97 22.07 160.12 22.07"/><path class="cls-1" d="M53.5,30.57c1.32-1.77,3.42-2.81,5.96-2.81,2.79,0,4.91,1.6,6.01,3.95l-13.54,5.62c-.37-2.88.37-5.14,1.57-6.75M68.38,41.61c-3.26,2.41-5.13,2.99-8.1,2.99-2.68,0-4.77-.83-6.25-2.29l19.81-8.22c-.43-3.06-1.59-5.8-3.38-7.88-2.6-3.02-6.46-4.62-11.15-4.62-8.52,0-14.95,6.29-14.95,14.59s6.44,14.59,15.8,14.59c5.24,0,10.61-2.49,13.11-5.39l-4.9-3.77Z"/><polygon class="cls-1" points="43.63 43.17 26.02 43.17 26.02 13.62 18.16 13.62 18.16 50.29 43.63 50.29 43.63 43.17"/><path class="cls-1" d="M182.88,28.23c-4.33,0-7.47,3.28-7.47,7.95s3.33,7.95,7.57,7.95,7.47-3.37,7.47-7.95-3.33-7.95-7.57-7.95M182.88,50.76c-8.47,0-15.11-6.31-15.11-14.59s6.68-14.59,15.22-14.59,15.11,6.31,15.11,14.59-6.68,14.59-15.22,14.59"/><path class="cls-1" d="M123.22,28.23c-4.33,0-7.47,3.28-7.47,7.95s3.33,7.95,7.57,7.95,7.47-3.37,7.47-7.95-3.33-7.95-7.57-7.95M123.22,50.76c-8.47,0-15.11-6.31-15.11-14.59s6.68-14.59,15.22-14.59,15.11,6.31,15.11,14.59-6.68,14.59-15.22,14.59"/></svg>